<svg width="938" height="141" viewBox="0 0 938 141" fill="none" xmlns="http://www.w3.org/2000/svg">
<path d="M830.921 2.79997V134.47H852.251V137.8H809.051V134.47H827.501V6.12997H809.051V2.79997H830.921ZM937.031 2.79997V6.12997H918.041V139.6H913.451L828.491 2.79997H849.191L914.621 109.99V6.12997H893.831V2.79997H937.031Z" fill="#1C1D17"/>
<path d="M739.793 137.8V134.47H759.593V6.12997H739.793V2.79997H798.293V6.12997H776.693V134.47H798.293V137.8H739.793Z" fill="#1C1D17"/>
<path d="M630.691 98.74L699.451 6.12997H679.831V2.79997H723.031V6.12997H704.311L635.551 98.74H630.691ZM613.231 137.8V134.47H629.431V6.12997H613.231V2.79997H664.531V6.12997H646.621V134.47H664.531V137.8H613.231ZM675.331 137.8V134.47H693.691L655.621 66.97L666.781 53.02L715.201 134.47H731.131V137.8H675.331Z" fill="#1C1D17"/>
<path d="M516.08 69.85V67.87H543.08C548.84 67.87 553.73 66.7 557.75 64.36C561.83 61.96 564.92 58.48 567.02 53.92C569.12 49.3 570.17 43.72 570.17 37.18C570.17 30.64 569.12 25.06 567.02 20.44C564.92 15.76 561.83 12.22 557.75 9.81998C553.73 7.35998 548.84 6.12997 543.08 6.12997H483.68V2.79997H543.08C552.14 2.79997 560.03 4.05997 566.75 6.57997C573.53 9.03997 578.78 12.82 582.5 17.92C586.22 22.96 588.08 29.38 588.08 37.18C588.08 44.98 586.34 51.28 582.86 56.08C579.38 60.88 574.28 64.39 567.56 66.61C560.9 68.77 552.74 69.85 543.08 69.85H516.08ZM483.68 137.8V134.47H540.47V137.8H483.68ZM503.48 136V5.04998H520.58V136H503.48ZM587.18 138.7C581.96 138.7 577.88 137.77 574.94 135.91C572.06 133.99 569.96 131.44 568.64 128.26C567.32 125.02 566.48 121.39 566.12 117.37C565.82 113.35 565.64 109.21 565.58 104.95C565.52 100.69 565.28 96.55 564.86 92.53C564.44 88.51 563.51 84.91 562.07 81.73C560.63 78.49 558.32 75.94 555.14 74.08C552.02 72.16 547.7 71.2 542.18 71.2H516.08V69.4H545.78C554.42 69.4 561.26 70.6 566.3 73C571.4 75.34 575.24 78.46 577.82 82.36C580.4 86.26 582.14 90.55 583.04 95.23C583.94 99.85 584.42 104.5 584.48 109.18C584.54 113.8 584.66 118.06 584.84 121.96C585.08 125.86 585.74 128.98 586.82 131.32C587.96 133.66 590.06 134.83 593.12 134.83C595.04 134.83 596.72 134.65 598.16 134.29C599.66 133.87 601.01 133.36 602.21 132.76L603.38 135.91C601.94 136.69 599.78 137.35 596.9 137.89C594.08 138.43 590.84 138.7 587.18 138.7Z" fill="#1C1D17"/>
<path d="M372.762 137.8V134.47H388.962V6.12997H372.762V2.79997H468.702V39.7H465.462C465.462 33.28 464.532 27.55 462.672 22.51C460.812 17.41 457.782 13.42 453.582 10.54C449.382 7.59998 443.772 6.12997 436.752 6.12997H406.152V134.47H434.862C443.082 134.47 449.532 132.97 454.212 129.97C458.952 126.91 462.312 122.62 464.292 117.1C466.272 111.52 467.262 104.92 467.262 97.3H470.502V137.8H372.762ZM434.862 87.67C434.862 83.65 434.082 80.32 432.522 77.68C430.962 74.98 428.802 72.97 426.042 71.65C423.342 70.33 420.282 69.67 416.862 69.67H401.652V66.34H416.862C420.282 66.34 423.342 65.74 426.042 64.54C428.802 63.34 430.962 61.48 432.522 58.96C434.082 56.38 434.862 53.08 434.862 49.06H438.102V87.67H434.862Z" fill="#1C1D17"/>
<path d="M278.64 137.8V134.47H298.44V6.12997H280.44C275.16 6.12997 270.87 6.99998 267.57 8.73998C264.33 10.42 261.81 12.88 260.01 16.12C258.27 19.36 257.07 23.29 256.41 27.91C255.75 32.47 255.42 37.6 255.42 43.3H252V2.79997H361.98V43.3H358.65C358.65 37.6 358.32 32.47 357.66 27.91C357 23.29 355.77 19.36 353.97 16.12C352.17 12.88 349.62 10.42 346.32 8.73998C343.08 6.99998 338.82 6.12997 333.54 6.12997H315.54V134.47H335.34V137.8H278.64Z" fill="#1C1D17"/>
<path d="M157.878 137.8V134.47H177.678V6.12997H159.678C154.398 6.12997 150.108 6.99998 146.808 8.73998C143.568 10.42 141.048 12.88 139.248 16.12C137.508 19.36 136.308 23.29 135.648 27.91C134.988 32.47 134.658 37.6 134.658 43.3H131.238V2.79997H241.218V43.3H237.888C237.888 37.6 237.558 32.47 236.898 27.91C236.238 23.29 235.008 19.36 233.208 16.12C231.408 12.88 228.858 10.42 225.558 8.73998C222.318 6.99998 218.058 6.12997 212.778 6.12997H194.778V134.47H214.578V137.8H157.878Z" fill="#1C1D17"/>
<path d="M58.5999 139.6C49.4799 139.6 41.3499 137.83 34.2099 134.29C27.0699 130.69 21.0099 125.71 16.0299 119.35C11.1099 112.99 7.35994 105.64 4.77994 97.3C2.25994 88.9 0.999939 79.9 0.999939 70.3C0.999939 60.7 2.34994 51.73 5.04994 43.39C7.80994 34.99 11.7099 27.61 16.7499 21.25C21.7899 14.89 27.8499 9.93998 34.9299 6.39998C42.0099 2.79997 49.8999 0.999969 58.5999 0.999969C67.2999 0.999969 75.1599 2.79997 82.1799 6.39998C89.2599 9.93998 95.3199 14.89 100.36 21.25C105.46 27.61 109.36 34.99 112.06 43.39C114.76 51.73 116.11 60.7 116.11 70.3C116.11 79.9 114.82 88.9 112.24 97.3C109.72 105.64 106 112.99 101.08 119.35C96.1599 125.71 90.1299 130.69 82.99 134.29C75.8499 137.83 67.7199 139.6 58.5999 139.6ZM58.5999 136.54C66.4599 136.54 72.7899 134.68 77.5899 130.96C82.4499 127.18 86.1699 122.11 88.75 115.75C91.3899 109.39 93.1599 102.28 94.0599 94.42C95.0199 86.5 95.4999 78.46 95.4999 70.3C95.4999 62.14 94.9299 54.13 93.7899 46.27C92.7099 38.35 90.8199 31.21 88.1199 24.85C85.4199 18.49 81.6699 13.45 76.8699 9.72997C72.0699 5.94998 65.9799 4.05997 58.5999 4.05997C51.2199 4.05997 45.1299 5.94998 40.3299 9.72997C35.5299 13.45 31.7499 18.49 28.9899 24.85C26.2899 31.21 24.3699 38.35 23.2299 46.27C22.1499 54.13 21.6099 62.14 21.6099 70.3C21.6099 78.46 22.0899 86.5 23.0499 94.42C24.0099 102.28 25.7799 109.39 28.3599 115.75C30.9399 122.11 34.6599 127.18 39.5199 130.96C44.4399 134.68 50.7999 136.54 58.5999 136.54Z" fill="#1C1D17"/>
<path d="M37.3826 93.8915C35.8992 102.878 32.6869 121.296 21 123.459C23.1565 124.901 37.3826 123.459 46.5652 119.132C52.4087 124.18 53.4313 123.459 63.3652 123.459C73.2991 123.459 74.0782 121.776 69.9391 119.853C64.2717 119.678 59.6845 118.889 59.6845 116.725C60.1309 116.824 65.9384 109.026 65.5565 105.43C71.4 103.267 72.8609 92.7125 75.0522 88.1225C77.2435 88.1225 77.8893 87.9413 77.9739 84.5166C78.7043 54.9491 63.8666 43.4106 63.3439 41.2471C62.8211 39.0837 63.8102 36.924 64.3894 34.6274C69.5957 33.5882 74.3219 30.4706 75.0522 28.3922C75.7824 26.3137 74.3219 24.2353 74.3219 24.2353C73.2764 22.6765 69.9391 21.6372 69.9391 21.6372C69.9391 21.6372 66.4661 18 59.1618 18C50.3966 18 42.913 22.497 42.913 41.2471C42.913 41.2471 41.9739 41.9683 41.9739 43.4106C41.9739 44.8529 42.3913 43.433 41.9739 45.574C41.5565 47.715 39.8869 50.2389 39.8869 54.9491V72.5126C39.8869 79.3637 37.8 84.0429 37.3826 86.6121C36.9652 89.1812 41.9739 90.0377 41.9739 90.0377C39.0522 90.0377 37.8067 91.3223 37.3826 93.8915Z" fill="#1C1D17"/>
<path d="M830.921 2.79997V134.47H852.251V137.8H809.051V134.47H827.501V6.12997H809.051V2.79997H830.921ZM937.031 2.79997V6.12997H918.041V139.6H913.451L828.491 2.79997H849.191L914.621 109.99V6.12997H893.831V2.79997H937.031Z" stroke="#1C1D17"/>
<path d="M739.793 137.8V134.47H759.593V6.12997H739.793V2.79997H798.293V6.12997H776.693V134.47H798.293V137.8H739.793Z" stroke="#1C1D17"/>
<path d="M630.691 98.74L699.451 6.12997H679.831V2.79997H723.031V6.12997H704.311L635.551 98.74H630.691ZM613.231 137.8V134.47H629.431V6.12997H613.231V2.79997H664.531V6.12997H646.621V134.47H664.531V137.8H613.231ZM675.331 137.8V134.47H693.691L655.621 66.97L666.781 53.02L715.201 134.47H731.131V137.8H675.331Z" stroke="#1C1D17"/>
<path d="M516.08 69.85V67.87H543.08C548.84 67.87 553.73 66.7 557.75 64.36C561.83 61.96 564.92 58.48 567.02 53.92C569.12 49.3 570.17 43.72 570.17 37.18C570.17 30.64 569.12 25.06 567.02 20.44C564.92 15.76 561.83 12.22 557.75 9.81998C553.73 7.35998 548.84 6.12997 543.08 6.12997H483.68V2.79997H543.08C552.14 2.79997 560.03 4.05997 566.75 6.57997C573.53 9.03997 578.78 12.82 582.5 17.92C586.22 22.96 588.08 29.38 588.08 37.18C588.08 44.98 586.34 51.28 582.86 56.08C579.38 60.88 574.28 64.39 567.56 66.61C560.9 68.77 552.74 69.85 543.08 69.85H516.08ZM483.68 137.8V134.47H540.47V137.8H483.68ZM503.48 136V5.04998H520.58V136H503.48ZM587.18 138.7C581.96 138.7 577.88 137.77 574.94 135.91C572.06 133.99 569.96 131.44 568.64 128.26C567.32 125.02 566.48 121.39 566.12 117.37C565.82 113.35 565.64 109.21 565.58 104.95C565.52 100.69 565.28 96.55 564.86 92.53C564.44 88.51 563.51 84.91 562.07 81.73C560.63 78.49 558.32 75.94 555.14 74.08C552.02 72.16 547.7 71.2 542.18 71.2H516.08V69.4H545.78C554.42 69.4 561.26 70.6 566.3 73C571.4 75.34 575.24 78.46 577.82 82.36C580.4 86.26 582.14 90.55 583.04 95.23C583.94 99.85 584.42 104.5 584.48 109.18C584.54 113.8 584.66 118.06 584.84 121.96C585.08 125.86 585.74 128.98 586.82 131.32C587.96 133.66 590.06 134.83 593.12 134.83C595.04 134.83 596.72 134.65 598.16 134.29C599.66 133.87 601.01 133.36 602.21 132.76L603.38 135.91C601.94 136.69 599.78 137.35 596.9 137.89C594.08 138.43 590.84 138.7 587.18 138.7Z" stroke="#1C1D17"/>
<path d="M372.762 137.8V134.47H388.962V6.12997H372.762V2.79997H468.702V39.7H465.462C465.462 33.28 464.532 27.55 462.672 22.51C460.812 17.41 457.782 13.42 453.582 10.54C449.382 7.59998 443.772 6.12997 436.752 6.12997H406.152V134.47H434.862C443.082 134.47 449.532 132.97 454.212 129.97C458.952 126.91 462.312 122.62 464.292 117.1C466.272 111.52 467.262 104.92 467.262 97.3H470.502V137.8H372.762ZM434.862 87.67C434.862 83.65 434.082 80.32 432.522 77.68C430.962 74.98 428.802 72.97 426.042 71.65C423.342 70.33 420.282 69.67 416.862 69.67H401.652V66.34H416.862C420.282 66.34 423.342 65.74 426.042 64.54C428.802 63.34 430.962 61.48 432.522 58.96C434.082 56.38 434.862 53.08 434.862 49.06H438.102V87.67H434.862Z" stroke="#1C1D17"/>
<path d="M278.64 137.8V134.47H298.44V6.12997H280.44C275.16 6.12997 270.87 6.99998 267.57 8.73998C264.33 10.42 261.81 12.88 260.01 16.12C258.27 19.36 257.07 23.29 256.41 27.91C255.75 32.47 255.42 37.6 255.42 43.3H252V2.79997H361.98V43.3H358.65C358.65 37.6 358.32 32.47 357.66 27.91C357 23.29 355.77 19.36 353.97 16.12C352.17 12.88 349.62 10.42 346.32 8.73998C343.08 6.99998 338.82 6.12997 333.54 6.12997H315.54V134.47H335.34V137.8H278.64Z" stroke="#1C1D17"/>
<path d="M157.878 137.8V134.47H177.678V6.12997H159.678C154.398 6.12997 150.108 6.99998 146.808 8.73998C143.568 10.42 141.048 12.88 139.248 16.12C137.508 19.36 136.308 23.29 135.648 27.91C134.988 32.47 134.658 37.6 134.658 43.3H131.238V2.79997H241.218V43.3H237.888C237.888 37.6 237.558 32.47 236.898 27.91C236.238 23.29 235.008 19.36 233.208 16.12C231.408 12.88 228.858 10.42 225.558 8.73998C222.318 6.99998 218.058 6.12997 212.778 6.12997H194.778V134.47H214.578V137.8H157.878Z" stroke="#1C1D17"/>
<path d="M58.5999 139.6C49.4799 139.6 41.3499 137.83 34.2099 134.29C27.0699 130.69 21.0099 125.71 16.0299 119.35C11.1099 112.99 7.35994 105.64 4.77994 97.3C2.25994 88.9 0.999939 79.9 0.999939 70.3C0.999939 60.7 2.34994 51.73 5.04994 43.39C7.80994 34.99 11.7099 27.61 16.7499 21.25C21.7899 14.89 27.8499 9.93998 34.9299 6.39998C42.0099 2.79997 49.8999 0.999969 58.5999 0.999969C67.2999 0.999969 75.1599 2.79997 82.1799 6.39998C89.2599 9.93998 95.3199 14.89 100.36 21.25C105.46 27.61 109.36 34.99 112.06 43.39C114.76 51.73 116.11 60.7 116.11 70.3C116.11 79.9 114.82 88.9 112.24 97.3C109.72 105.64 106 112.99 101.08 119.35C96.1599 125.71 90.1299 130.69 82.99 134.29C75.8499 137.83 67.7199 139.6 58.5999 139.6ZM58.5999 136.54C66.4599 136.54 72.7899 134.68 77.5899 130.96C82.4499 127.18 86.1699 122.11 88.75 115.75C91.3899 109.39 93.1599 102.28 94.0599 94.42C95.0199 86.5 95.4999 78.46 95.4999 70.3C95.4999 62.14 94.9299 54.13 93.7899 46.27C92.7099 38.35 90.8199 31.21 88.1199 24.85C85.4199 18.49 81.6699 13.45 76.8699 9.72997C72.0699 5.94998 65.9799 4.05997 58.5999 4.05997C51.2199 4.05997 45.1299 5.94998 40.3299 9.72997C35.5299 13.45 31.7499 18.49 28.9899 24.85C26.2899 31.21 24.3699 38.35 23.2299 46.27C22.1499 54.13 21.6099 62.14 21.6099 70.3C21.6099 78.46 22.0899 86.5 23.0499 94.42C24.0099 102.28 25.7799 109.39 28.3599 115.75C30.9399 122.11 34.6599 127.18 39.5199 130.96C44.4399 134.68 50.7999 136.54 58.5999 136.54Z" stroke="#1C1D17"/>
<path d="M37.3826 93.8915C35.8992 102.878 32.6869 121.296 21 123.459C23.1565 124.901 37.3826 123.459 46.5652 119.132C52.4087 124.18 53.4313 123.459 63.3652 123.459C73.2991 123.459 74.0782 121.776 69.9391 119.853C64.2717 119.678 59.6845 118.889 59.6845 116.725C60.1309 116.824 65.9384 109.026 65.5565 105.43C71.4 103.267 72.8609 92.7125 75.0522 88.1225C77.2435 88.1225 77.8893 87.9413 77.9739 84.5166C78.7043 54.9491 63.8666 43.4106 63.3439 41.2471C62.8211 39.0837 63.8102 36.924 64.3894 34.6274C69.5957 33.5882 74.3219 30.4706 75.0522 28.3922C75.7824 26.3137 74.3219 24.2353 74.3219 24.2353C73.2764 22.6765 69.9391 21.6372 69.9391 21.6372C69.9391 21.6372 66.4661 18 59.1618 18C50.3966 18 42.913 22.497 42.913 41.2471C42.913 41.2471 41.9739 41.9683 41.9739 43.4106C41.9739 44.8529 42.3913 43.433 41.9739 45.574C41.5565 47.715 39.8869 50.2389 39.8869 54.9491V72.5126C39.8869 79.3637 37.8 84.0429 37.3826 86.6121C36.9652 89.1812 41.9739 90.0377 41.9739 90.0377C39.0522 90.0377 37.8067 91.3223 37.3826 93.8915Z" stroke="#1C1D17"/>
</svg>
